
<svg xmlns="http://www.w3.org/2000/svg" version="1.2" viewBox="10.79999828 6.79999542 697.40002441 135.80001831">
  <path fill="#da0024" d="M64.2 57.7H49.8C48.4 63.6 44.6 68 37.6 68c-3.9 0-7-1.5-9.1-3.8-2.6-3.1-3.6-6.6-3.6-20.5s1-17.5 3.6-20.5c2.1-2.4 5.2-3.8 9.1-3.8 7 0 10.7 4.4 12.1 10.3h14.5c-2.6-15.2-13-22.9-26.6-22.9-8.4 0-14.5 2.7-19.5 7.6-7.2 7.3-7.3 15.4-7.3 29.3s.1 22 7.3 29.3c5 4.9 11.1 7.6 19.5 7.6 13.5 0 24-7.7 26.6-22.9zm62.4-14c0-13.9-.2-22-7.4-29.3-4.9-4.9-11-7.6-19.4-7.6-8.3 0-14.6 2.7-19.5 7.6-7.2 7.3-7.3 15.4-7.3 29.3s.1 22 7.3 29.3c4.9 4.9 11.2 7.6 19.5 7.6 8.4 0 14.5-2.7 19.4-7.6 7.2-7.3 7.4-15.4 7.4-29.3zm-14.1 0c0 13.9-1 17.2-3.6 20.3-2 2.3-5.2 4-9.1 4-3.9 0-7-1.7-9.2-4-2.6-3.1-3.4-6.4-3.4-20.3s.8-17.4 3.4-20.4c2.2-2.4 5.3-3.9 9.2-3.9 3.9 0 7.1 1.5 9.1 3.9 2.6 3 3.6 6.5 3.6 20.4zM196.7 80V7.4h-14.2v44.4L153.8 7.4h-12.7V80h14.2V35.4L184.1 80zm64.7-60V7.4h-47.8V80h14.2V50.5h28.6V37.9h-28.6V20zm60.2 60V67.4h-33.7V49.7h28.7V37.1h-28.7V20h33.7V7.4h-47.9V80zm68.9 0-16.2-31.3c7-2.6 13.2-8.9 13.2-19.1 0-12.1-8.8-22.2-23.5-22.2h-28.5V80h14.2V51h10.2l14.2 29zm-17.2-50.4c0 5.6-4.1 9.6-10.3 9.6h-13.3V20H363c6.2 0 10.3 4 10.3 9.6zM450 80V67.4h-33.6V49.7H445V37.1h-28.6V20H450V7.4h-47.8V80zm69.4 0V7.4h-14.1v44.4L476.5 7.4h-12.6V80H478V35.4L506.8 80zm67.9-22.3h-14.4c-1.4 5.9-5.2 10.3-12.2 10.3-3.9 0-7-1.5-9.1-3.8-2.6-3.1-3.5-6.6-3.5-20.5s.9-17.5 3.5-20.5c2.1-2.4 5.2-3.8 9.1-3.8 7 0 10.7 4.4 12.1 10.3h14.5c-2.6-15.2-13-22.9-26.6-22.9-8.4 0-14.5 2.7-19.5 7.6-7.2 7.3-7.3 15.4-7.3 29.3s.1 22 7.3 29.3c5 4.9 11.1 7.6 19.5 7.6 13.5 0 24-7.7 26.6-22.9zM647.4 80V67.4h-33.7V49.7h28.7V37.1h-28.7V20h33.7V7.4h-47.8V80zm60.8-21.4c0-6.5-1.8-11.7-5.7-15.3-3.1-3.1-7.2-4.8-13.8-5.7l-8.7-1.4c-3.1-.4-5.2-1.4-6.6-2.7-1.6-1.4-2.1-3.3-2.1-5.2 0-5 3.6-9.2 11.2-9.2 4.7 0 10.4.6 14.8 5l9-8.9c-6.2-6-13.4-8.4-23.4-8.4-15.7 0-25.3 9-25.3 22 0 6.1 1.7 10.9 5.2 14.3 3.2 3.1 7.6 5.1 14 6l8.7 1.3c3.7.5 5.1 1.1 6.5 2.5 1.6 1.5 2.3 3.5 2.3 6 0 5.8-4.5 9.1-13 9.1-6.6 0-12.8-1.6-17.4-6.2l-9.2 9.2c7.2 7.3 15.5 9.6 26.5 9.6 15.3 0 27-7.9 27-22zM41.2 112c0-5.5-3.9-10-10.6-10H18.2v32h6.3v-12.1h6.1c6.7 0 10.6-4.5 10.6-9.9zm-6.3 0c0 2.6-1.8 4.3-4.6 4.3h-5.8v-8.8h5.8c2.8 0 4.6 1.8 4.6 4.5zm28.3.5c-1.7-1.6-3.3-2.2-5.6-2.2-2.5 0-4.7 1.2-5.9 2.5v-2.2H46V134h5.9v-14.1c0-3 1.9-4.3 3.7-4.3 1.5 0 2.2.4 3.1 1.3zm21.3 11.7v-2.5c0-6.7-3.7-11.4-10.2-11.4-6.1 0-10.2 4.4-10.2 12 0 9.5 5.3 12 10.8 12 4.2 0 6.5-1.2 8.9-3.7l-3.5-3.4c-1.5 1.4-2.8 2.2-5.4 2.2-3.3 0-5.1-2.2-5.1-5.2zm-5.7-4h-9c.1-1.1.2-1.7.6-2.6.6-1.4 1.9-2.4 3.9-2.4s3.3 1 3.9 2.4c.4.9.5 1.5.6 2.6zm28.8 6.5c0-4-2.4-6.5-7-6.9l-3.7-.4c-1.8-.2-2.4-.8-2.4-2s1-2.2 3.3-2.2c2.1 0 4.1.3 5.4 1.5l3.6-3.6c-2.2-2.1-5.2-2.8-8.9-2.8-4.8 0-9.1 2.6-9.1 7.5 0 4.3 2.6 6.2 6.8 6.6l3.8.3c1.9.2 2.4 1 2.4 2.2 0 1.8-2.1 2.4-4.1 2.4-1.8 0-4.4-.2-6.3-2.2l-3.8 3.9c3 2.9 6.3 3.3 10 3.3 5.5 0 10-2.5 10-7.6zm24.1-2.5v-2.5c0-6.7-3.7-11.4-10.2-11.4-6.1 0-10.2 4.4-10.2 12 0 9.5 5.3 12 10.8 12 4.3 0 6.6-1.2 8.9-3.7l-3.5-3.4c-1.5 1.4-2.8 2.2-5.3 2.2-3.3 0-5.1-2.2-5.1-5.2zm-5.8-4H117c0-1.1.1-1.7.5-2.6.7-1.4 2-2.4 3.9-2.4 2 0 3.3 1 4 2.4.4.9.4 1.5.5 2.6zm30.6 13.9v-15c0-2.6-.5-4.8-2.3-6.7-1.4-1.3-3.2-2.1-5.6-2.1-2.1 0-4.3.9-5.8 2.5v-2.2h-5.7v23.5h5.8v-14.2c0-3.2 2.1-4.3 3.9-4.3 1.9 0 3.9 1.1 3.9 4.3v14.2zm16.8 0v-5h-2.1c-1.4 0-2-.8-2-2.1v-11.3h4.1v-4.4h-4.1v-6.9h-5.9v6.9h-2.4v4.4h2.4v11.6c0 3.4 2.1 6.8 6.8 6.8zm22.8 0v-15.5c0-5.5-3.3-8.3-10-8.3-3.9 0-6.1.9-8.4 3.4l3.7 3.6c1.3-1.4 2.4-2 4.5-2 3.1 0 4.4 1.1 4.4 3.7v1.2h-5.5c-5.5 0-8.1 3-8.1 6.7 0 2.1.7 4 2 5.3 1.3 1.4 3.3 2.1 6 2.1s4.1-.7 5.7-2.3v2.1zm-5.8-8.7c0 1.5-.3 2.4-.9 3-1 .9-2.1 1.1-3.5 1.1-2.4 0-3.5-1-3.5-2.6 0-1.8 1.1-2.7 3.4-2.7h4.5zM213 134v-5h-2.2c-1.4 0-2-.7-2-2.1v-11.2h4.2v-4.5h-4.2v-6.9H203v6.9h-2.5v4.5h2.5v11.6c0 3.3 2 6.7 6.8 6.7zm11.1 0v-22.8h-5.8V134zm0-27.5v-4.7h-6v4.7zm25.4 15.7c0-4.2-.6-6.8-2.7-9-1.5-1.6-3.8-2.9-7.3-2.9-3.4 0-5.7 1.3-7.2 2.9-2.1 2.2-2.7 4.8-2.7 9 0 4.3.6 6.9 2.7 9.2 1.5 1.5 3.8 2.9 7.2 2.9 3.5 0 5.8-1.4 7.3-2.9 2.2-2.2 2.7-4.9 2.7-9.2zm-5.9 0c0 2.5-.1 4.6-1.3 5.8-.7.6-1.6 1-2.8 1-1.1 0-2-.4-2.7-1-1.2-1.2-1.3-3.3-1.3-5.8 0-2.3.1-4.5 1.3-5.6.7-.7 1.6-1.1 2.7-1.1 1.2 0 2.1.4 2.8 1.1 1.2 1.1 1.3 3.3 1.3 5.6zm30.9 11.8v-15c0-2.6-.5-4.8-2.4-6.7-1.3-1.3-3.2-2-5.5-2-2.2 0-4.3.8-5.8 2.4v-2.2H255V134h5.9v-14.2c0-3.2 2.1-4.3 3.9-4.3 1.9 0 3.9 1.1 3.9 4.3V134zm23.9-7.4c0-4-2.3-6.4-7-6.9l-3.6-.3c-1.8-.2-2.5-.9-2.5-2.1 0-1.1 1-2.2 3.4-2.2 2 0 4 .4 5.4 1.6l3.6-3.7c-2.3-2-5.3-2.7-9-2.7-4.7 0-9 2.5-9 7.4 0 4.4 2.6 6.2 6.7 6.6l3.8.4c1.9.2 2.5 1 2.5 2.1 0 1.8-2.1 2.5-4.1 2.5-1.8 0-4.4-.3-6.3-2.2l-3.8 3.8c3 3 6.3 3.4 10 3.4 5.5 0 9.9-2.5 9.9-7.7zm30.4-28h-5.5l-12.8 38.7h5.5zm49.9 3.4h-6.6l-4.9 20.2-5.9-20.2h-4.7l-5.8 20.2-5-20.2h-6.5l8.5 32h5.3l5.9-19.4 5.9 19.4h5.2zm20.6 20.3c0-4.2-.6-6.9-2.7-9.1-1.5-1.6-3.8-2.9-7.3-2.9-3.4 0-5.7 1.4-7.2 2.9-2.1 2.2-2.7 4.9-2.7 9.1 0 4.2.6 6.9 2.7 9.1 1.5 1.6 3.8 2.9 7.2 2.9 3.5 0 5.8-1.3 7.3-2.9 2.2-2.2 2.7-4.9 2.7-9.1zm-5.9 0c0 2.4-.1 4.5-1.3 5.7-.7.7-1.6 1-2.8 1-1.1 0-2-.3-2.7-1-1.2-1.2-1.3-3.3-1.3-5.7 0-2.4.1-4.5 1.3-5.7.7-.7 1.6-1 2.7-1 1.2 0 2.1.3 2.8 1 1.2 1.2 1.3 3.3 1.3 5.7zm28.6-9.8c-1.6-1.6-3.2-2.2-5.5-2.2-2.5 0-4.8 1.2-5.9 2.5v-2.2h-5.7V134h5.8v-14.1c0-3 2-4.3 3.8-4.3 1.4 0 2.2.5 3.1 1.4zm24.7 21.5-9-14 8.3-9.5h-7l-7.8 9.6v-18.2h-5.9V134h5.9v-7l2.5-2.8 5.7 9.8zm20.1-7.4c0-4-2.3-6.4-6.9-6.9l-3.7-.3c-1.8-.2-2.5-.9-2.5-2.1 0-1.1 1-2.2 3.4-2.2 2 0 4.1.3 5.4 1.6l3.6-3.7c-2.2-2.1-5.3-2.7-8.9-2.7-4.8 0-9.1 2.5-9.1 7.4 0 4.4 2.6 6.2 6.8 6.6l3.7.4c1.9.2 2.5 1 2.5 2.1 0 1.8-2.1 2.5-4.1 2.5-1.8 0-4.4-.3-6.3-2.2l-3.8 3.8c3 3 6.3 3.4 10 3.4 5.5 0 9.9-2.5 9.9-7.7zm24.4 7.4v-15c0-2.6-.5-4.8-2.4-6.7-1.3-1.3-3.2-2-5.5-2-2.2 0-4.2.8-5.7 2.4v-10.8h-5.9V134h5.9v-14.2c0-3.2 2.1-4.3 3.9-4.3 1.8 0 3.9 1.1 3.9 4.3V134zm25.1-11.8c0-4.2-.5-6.8-2.6-9-1.5-1.6-3.9-2.9-7.3-2.9-3.5 0-5.8 1.3-7.3 2.9-2.1 2.2-2.6 4.8-2.6 9 0 4.3.5 6.9 2.6 9.2 1.5 1.5 3.8 2.9 7.3 2.9 3.4 0 5.8-1.4 7.3-2.9 2.1-2.2 2.6-4.9 2.6-9.2zm-5.8 0c0 2.5-.2 4.6-1.4 5.8-.6.6-1.5 1-2.7 1-1.1 0-2-.4-2.7-1-1.2-1.2-1.4-3.3-1.4-5.8 0-2.3.2-4.5 1.4-5.6.7-.7 1.6-1.1 2.7-1.1 1.2 0 2.1.4 2.7 1.1 1.2 1.1 1.4 3.3 1.4 5.6zm31 0c0-3.9-.2-7.5-2.4-9.8-1.3-1.4-3.4-2.1-5.7-2.1-2.5 0-4.2.6-5.8 2.4v-2.2h-5.7v32.1h5.9v-10.7c1.4 1.7 3.2 2.4 5.6 2.4 2.3 0 4.4-.8 5.7-2.2 2.2-2.3 2.4-5.9 2.4-9.9zm-5.8 0c0 3.8-.5 6.8-4 6.8s-3.9-3-3.9-6.8c0-3.7.4-6.7 3.9-6.7s4 3 4 6.7zm29 4.4c0-4-2.3-6.4-6.9-6.9l-3.7-.3c-1.8-.2-2.4-.9-2.4-2.1 0-1.1.9-2.2 3.3-2.2 2.1 0 4.1.3 5.4 1.6l3.6-3.7c-2.2-2.1-5.2-2.7-8.9-2.7-4.8 0-9.1 2.5-9.1 7.4 0 4.4 2.6 6.2 6.8 6.6l3.8.4c1.8.2 2.4 1 2.4 2.1 0 1.8-2.1 2.5-4.1 2.5-1.8 0-4.4-.3-6.3-2.2l-3.8 3.8c3 3 6.3 3.4 10 3.4 5.5 0 9.9-2.5 9.9-7.7zm30.4-28h-5.5l-12.8 38.7h5.5zm34.8 35.4v-5.6h-14.6V102h-6.2v32zm22.4 0v-15.4c0-5.5-3.4-8.3-10-8.3-3.9 0-6.2.8-8.4 3.3l3.6 3.6c1.3-1.4 2.4-2 4.5-2 3.1 0 4.4 1.2 4.4 3.7v1.2H641c-5.6 0-8.1 3-8.1 6.8 0 2.1.6 3.9 1.9 5.2 1.3 1.4 3.3 2.1 6 2.1s4.2-.7 5.7-2.2v2zm-5.8-8.6c0 1.4-.2 2.3-.9 2.9-1 1-2 1.1-3.5 1.1-2.4 0-3.5-1-3.5-2.6 0-1.8 1.1-2.7 3.4-2.7h4.5zm31.8-3.1c0-3.9-.2-7.6-2.5-9.9-1.3-1.3-3.3-2.1-5.6-2.1-2.4 0-4.2.6-5.7 2.4V102h-5.9v32h5.7v-2.2c1.6 1.8 3.3 2.5 5.9 2.5 2.3 0 4.3-.8 5.6-2.1 2.3-2.3 2.5-6 2.5-9.9zm-5.9 0c0 3.8-.4 6.7-3.9 6.7-3.6 0-4-2.9-4-6.7 0-3.8.4-6.7 4-6.7 3.5 0 3.9 2.9 3.9 6.7zm29.1 4.3c0-4-2.4-6.4-7-6.8l-3.7-.4c-1.7-.2-2.4-.9-2.4-2 0-1.2 1-2.3 3.3-2.3 2.1 0 4.1.4 5.5 1.6l3.6-3.6c-2.3-2.1-5.3-2.8-9-2.8-4.8 0-9 2.6-9 7.5 0 4.3 2.6 6.1 6.7 6.6l3.8.3c1.9.2 2.5 1 2.5 2.2 0 1.7-2.1 2.4-4.2 2.4-1.8 0-4.3-.3-6.2-2.2l-3.9 3.8c3.1 3 6.3 3.4 10 3.4 5.6 0 10-2.5 10-7.7z" aria-label="CONFERENCES Presentations / Workshops / Labs"/>
</svg>
